PathFileType	4	(X/Y/Z)	C:\Users\Basilio\Documents\Thesis Gigler\squatting_fais\c3dfiles\039\SLS_pre_front5\markers_experimental.trc
DataRate	CameraRate	NumFrames	NumMarkers	Units	OrigDataRate	OrigDataStartFrame	OrigNumFrames
200.000000	200.000000	4	63	mm	200.000000	1245	1992
Frame#	Time	FHD			LBHD			RBHD			C7			T10			LSHO			LUUPA			LMUPA			LDUPA			LLEP			LMEP			LUL			LRFIN			RSHO			RUPA1			RMUPA			RDUPA			RLEP			RMEP			RRAD			RUL			RUFIN			LASI			RASI			USACR			LSACR			RSACR			LTHI1			LTHI2			LTHI3			LTHI4			LLFC			LMFC			LTIB1			LTIB2			LTIB3			LTIB4			LLMAL			LMMAL			LHEE			LMT1			LMT2			LMT5			RTHI			RTHI2			RTHI3			RTHI4			RLFC			RMFC			RTIB1			RTIB2			RTIB3			RTIB4			RLMAL			RMMAL			RHEE			RMT1			RMT2			RMT5			LRAD			CLAV			*61			*62			
		X1	Y1	Z1	X2	Y2	Z2	X3	Y3	Z3	X4	Y4	Z4	X5	Y5	Z5	X6	Y6	Z6	X7	Y7	Z7	X8	Y8	Z8	X9	Y9	Z9	X10	Y10	Z10	X11	Y11	Z11	X12	Y12	Z12	X13	Y13	Z13	X14	Y14	Z14	X15	Y15	Z15	X16	Y16	Z16	X17	Y17	Z17	X18	Y18	Z18	X19	Y19	Z19	X20	Y20	Z20	X21	Y21	Z21	X22	Y22	Z22	X23	Y23	Z23	X24	Y24	Z24	X25	Y25	Z25	X26	Y26	Z26	X27	Y27	Z27	X28	Y28	Z28	X29	Y29	Z29	X30	Y30	Z30	X31	Y31	Z31	X32	Y32	Z32	X33	Y33	Z33	X34	Y34	Z34	X35	Y35	Z35	X36	Y36	Z36	X37	Y37	Z37	X38	Y38	Z38	X39	Y39	Z39	X40	Y40	Z40	X41	Y41	Z41	X42	Y42	Z42	X43	Y43	Z43	X44	Y44	Z44	X45	Y45	Z45	X46	Y46	Z46	X47	Y47	Z47	X48	Y48	Z48	X49	Y49	Z49	X50	Y50	Z50	X51	Y51	Z51	X52	Y52	Z52	X53	Y53	Z53	X54	Y54	Z54	X55	Y55	Z55	X56	Y56	Z56	X57	Y57	Z57	X58	Y58	Z58	X59	Y59	Z59	X60	Y60	Z60	X61	Y61	Z61	X62	Y62	Z62	X63	Y63	Z63	

1246	6.225000000000001	-241.8703002929688	1514.829223632813	-642.1539306640626	-403.4656066894532	1488.710205078125	-759.4183959960939	-372.4550781250001	1493.700561523438	-619.2192382812501	-451.5590209960939	1344.359619140625	-700.5208129882814	-572.3719482421876	1071.374389648438	-728.6345214843751	-375.1491699218751	1351.529663085938	-856.0244140625002	-216.0907897949219	1319.500732421875	-971.3842773437502	-192.170150756836	1349.3212890625	-938.8682861328127	-146.96826171875	1327.416381835938	-971.1597900390627	-79.74851226806642	1334.302734375	-966.4698486328127	-75.80533599853517	1263.144897460938	-936.3718261718752	198.7740936279297	1367.029907226563	-963.2012939453127	282.3821716308594	1396.5029296875	-884.7156982421877	-332.5811767578126	1342.304077148438	-555.9977416992189	-170.8528747558594	1278.272216796875	-465.9691772460939	-145.3021850585938	1312.525024414063	-493.2988586425782	-102.5882873535157	1274.114379882813	-472.0298156738282	-39.92908477783204	1287.791381835938	-486.5134277343751	-37.02775573730469	1220.1953125	-525.2022705078126	243.2187957763672	1330.106079101563	-580.9699096679689	247.7397155761719	1321.094116210938	-505.728729248047	329.3428649902344	1364.759765625	-579.1848144531251	-458.2286376953126	889.3046875000002	-854.238220214844	-454.8365173339845	880.915710449219	-627.8818359375001	-635.0419311523439	923.5166015625002	-732.3577270507814	-640.2111206054689	892.155456542969	-761.2027587890626	-638.7398681640626	890.3789062500002	-701.9661865234376	-329.1232299804688	691.7481689453126	-925.2316894531252	-245.0272064208985	679.9194335937501	-919.026794433594	-223.3254852294922	719.7550659179689	-904.2749023437502	-215.2451934814454	626.5521240234376	-908.2854614257815	-111.3975906372071	565.3081054687501	-902.990661621094	-78.34730529785158	566.5947875976564	-787.6325683593752	42.96408081054688	523.0553588867189	-876.0796508789065	37.70481491088868	448.7369995117189	-921.482604980469	67.45832824707033	478.1788024902345	-903.726745605469	130.6165008544922	429.5198364257814	-866.552917480469	230.3569946289063	286.3905944824219	-904.4328613281252	243.5348358154297	291.2825927734376	-818.8338623046877	231.9396972656251	195.1361236572266	-868.4790039062502	385.9654541015626	369.9565429687501	-844.9619750976565	378.2462158203126	371.2648925781251	-885.9106445312502	362.5936279296876	329.5858154296876	-942.411560058594	-345.4180603027344	654.9044189453126	-560.0264892578126	-279.0183715820313	645.0590820312501	-556.1378173828126	-257.8507385253907	670.1779785156251	-561.7275390625001	-241.6895599365235	568.9372558593751	-565.7098999023439	-190.3426055908203	465.7246398925782	-603.8801269531251	-160.5931854248047	482.845428466797	-711.8665161132814	-218.1715393066407	278.8587036132813	-667.9495239257814	-320.5992736816407	247.0386047363282	-666.4553833007814	-280.4739990234376	224.4655151367188	-675.3612060546876	-281.3869934082032	180.7677307128907	-717.3570556640626	-376.9655151367188	115.7855758666992	-712.5701293945314	-343.0059509277344	141.7429504394532	-792.7534790039065	-451.1094055175782	104.6282501220703	-771.0430908203127	-227.1789550781251	57.00318527221681	-777.3648071289065	-231.8290710449219	57.36821365356447	-731.1599121093751	-289.7122192382813	38.60250091552735	-683.1385498046876	200.9805297851563	1359.261840820313	-887.370056152344	nan	nan	nan	nan	nan	nan	nan	nan	nan	
1247	6.23	-242.2650451660157	1516.0517578125	-641.8461303710939	-409.1713256835939	1488.970825195313	-754.3344116210939	-372.8536376953126	1495.176025390625	-619.1005859375001	-451.7875976562501	1345.69091796875	-700.3872680664064	-572.5959472656251	1072.568237304688	-728.6952514648439	-375.7249755859376	1352.92431640625	-855.986755371094	-216.356430053711	1320.88671875	-971.323669433594	-192.3671417236329	1350.50341796875	-938.3945312500002	-147.1876831054688	1328.97705078125	-971.1804199218752	-80.0440139770508	1335.7890625	-966.1372680664065	-76.00349426269533	1264.459838867188	-936.4029541015627	198.4232635498047	1368.671264648438	-963.1763305664065	282.1205444335938	1398.246337890625	-884.6538085937502	-332.9849243164063	1343.64453125	-555.7969970703126	-171.1283569335938	1279.759643554688	-465.7459411621095	-145.4606628417969	1314.105590820313	-493.018035888672	-102.9205474853516	1275.67138671875	-472.012420654297	-40.51663208007813	1289.308837890625	-486.3558959960939	-37.51007461547852	1221.852294921875	-525.1886596679689	242.7385559082032	1331.669921875	-580.9637451171876	247.4463653564454	1323.069702148438	-505.4561767578126	328.9006347656251	1366.421630859375	-579.3416137695314	-458.0862731933595	890.5474853515627	-854.318298339844	-454.9899902343751	882.2551879882815	-628.0150146484376	-635.1621704101564	924.8740234375002	-732.4860229492189	-640.3316650390626	893.434020996094	-761.2874145507814	-639.5639648437501	891.8811645507815	-702.2549438476564	-329.3439331054688	692.7004394531251	-925.236755371094	-245.2851867675782	680.8435058593751	-919.1063232421877	-223.523910522461	720.6663818359376	-904.2940673828127	-215.6365051269532	627.4769287109376	-908.3118286132815	-111.5229110717774	566.1830444335939	-903.1204223632815	-78.6427688598633	567.1959838867189	-787.7523193359377	42.60021972656251	523.6108398437501	-876.0440673828127	37.2959098815918	449.4015502929689	-921.631042480469	66.8665008544922	478.8924865722657	-903.9129638671877	130.2995300292969	430.2023315429689	-866.9613037109377	229.7945861816407	286.7632141113282	-904.796813964844	243.1405639648438	291.6082458496094	-819.0407714843752	231.1824951171876	195.6542358398438	-868.7451171875002	385.5433654785157	370.6212768554688	-845.341735839844	377.5294189453126	371.9911499023438	-886.2421875000002	361.9562988281251	330.1531982421876	-942.7380981445315	-346.3910522460938	655.4537353515626	-560.0408935546876	-279.3575439453126	645.8580932617189	-556.0078125000001	-258.0441284179688	671.0114135742189	-561.5819702148439	-242.3402862548829	569.7267456054689	-565.4240112304689	-191.2662811279297	466.2173767089845	-603.4584350585939	-161.1715850830078	483.2338256835939	-711.4293823242189	-218.666000366211	279.1276550292969	-667.7656250000001	-321.2438049316407	247.3307342529297	-666.1757812500001	-280.8421020507813	224.4297943115235	-675.1406250000001	-281.6465759277344	180.896713256836	-716.8602294921876	-377.0653991699219	115.7237625122071	-712.4298706054689	-343.1835021972657	141.5946502685547	-792.5653076171877	-451.0960388183595	104.5814590454102	-770.997741699219	-227.1846008300782	57.14575195312501	-777.2484130859377	-231.8789978027344	57.40419387817384	-731.0664672851564	-289.4581298828126	38.84619140625001	-682.9901733398439	200.7179260253907	1361.236694335938	-887.5503540039065	nan	nan	nan	nan	nan	nan	nan	nan	nan	
1248	6.235	-242.5616455078126	1517.737426757813	-642.0623168945314	-407.1963500976564	1490.896728515625	-756.3906860351564	-373.2630004882813	1496.591430664063	-618.8803100585939	-452.2703247070314	1347.13525390625	-700.3681030273439	-572.7384643554689	1073.959716796875	-728.6451416015626	-376.4872436523438	1354.660522460938	-856.0042114257815	-216.9339447021485	1322.81689453125	-971.1355590820315	-192.7919616699219	1352.272094726563	-938.3099365234377	-147.3852081298828	1330.33251953125	-970.7606201171877	-80.57640838623048	1337.618041992188	-966.0424804687502	-76.35888671875001	1266.100708007813	-936.2742919921877	198.0989532470704	1370.338134765625	-963.1666259765627	281.8581542968751	1399.836791992188	-884.6338500976565	-333.2815246582032	1345.111328125	-555.7597045898439	-171.4903564453125	1281.195678710938	-465.7236328125001	-146.1019134521485	1315.463012695313	-493.1257629394532	-103.3770141601563	1277.132446289063	-471.9314270019532	-40.92325592041016	1290.911743164063	-486.1823730468751	-37.8410758972168	1223.243408203125	-525.0562744140626	242.4855041503907	1333.4716796875	-580.9231567382814	246.9453125000001	1324.243041992188	-505.6780700683595	328.5213928222657	1368.063598632813	-579.1774902343751	-458.2209777832032	891.9057617187502	-854.1294555664065	-455.111297607422	883.652282714844	-627.8137817382814	-635.1768798828126	926.1479492187502	-732.6011962890626	-640.3059692382814	894.6734619140627	-761.3739624023439	-638.9287109375001	892.9900512695315	-702.0714721679689	-329.8460693359376	693.3449096679689	-925.3258056640627	-245.5684967041016	681.6752319335939	-919.1917724609377	-223.7657165527344	721.5921630859376	-904.3854980468752	-215.8709869384766	628.3588867187501	-908.376647949219	-111.8857803344727	566.9788208007814	-902.941589355469	-78.93385314941408	568.0503540039064	-787.9959716796877	42.11399459838868	524.3145141601564	-876.2767333984377	37.00516891479493	450.1589660644532	-921.8548583984377	66.62670898437501	479.7617187500001	-904.2307739257815	129.8673400878907	431.0227661132814	-867.1926879882815	229.1336212158204	287.2251586914063	-905.0593872070315	242.6978912353516	292.1063232421876	-819.3852539062502	230.5955200195313	196.3483123779297	-868.9302368164065	384.7475891113282	370.7822265625001	-846.084899902344	377.1696472167969	372.3973693847657	-886.6326293945315	361.4937438964844	330.8285217285157	-943.1464843750002	-346.5797119140626	656.7193603515626	-559.6555175781251	-280.1965942382813	646.7167968750001	-555.5192260742189	-258.5067138671876	671.6453857421876	-561.2762451171876	-243.2639923095704	570.2664794921876	-565.0122070312501	-192.2115020751954	466.6372985839845	-602.8577880859376	-161.79638671875	483.5811767578126	-710.8375854492189	-219.0228729248047	279.4426879882813	-667.2415771484376	-321.7038574218751	247.6334381103516	-665.8961181640626	-281.2008056640626	224.6486358642579	-674.8364868164064	-281.9222717285157	181.0369110107422	-716.5835571289064	-377.1707458496094	115.6495132446289	-712.2536621093751	-343.1945190429688	141.9571075439453	-792.230163574219	-451.0891723632814	104.5978088378907	-770.941101074219	-227.0959472656251	57.25631713867189	-777.0528564453127	-231.9413604736329	57.55983734130861	-730.9277954101564	-289.5148620605469	38.85205459594727	-682.9139404296876	200.2716979980469	1362.643676757813	-887.2559204101565	nan	nan	nan	nan	nan	nan	nan	nan	nan	
1249	6.24	-243.0990600585938	1518.968627929688	-641.6467895507814	-398.3433532714845	1494.3134765625	-764.8460693359376	-373.6607360839844	1498.033203125	-618.5998535156251	-452.7472534179689	1348.626098632813	-700.2774047851564	-572.8618774414064	1075.186279296875	-728.6969604492189	-376.6928710937501	1355.953002929688	-855.8389282226565	-216.8891754150391	1324.266479492188	-971.1065673828127	-193.2004699707032	1353.462768554688	-938.463317871094	-147.8395080566407	1332.166259765625	-970.8950195312502	-80.62496185302736	1339.199584960938	-966.0589599609377	-76.69737243652345	1267.750732421875	-936.1843261718752	197.6805114746094	1372.036743164063	-963.2143554687502	281.5077819824219	1401.611938476563	-884.6540527343752	-333.7273559570313	1346.613891601563	-555.5530395507814	-171.9294891357422	1282.79638671875	-465.5147399902345	-146.2352752685547	1317.104370117188	-492.9085388183595	-103.7469940185547	1278.573974609375	-472.0148315429689	-41.3022575378418	1292.397705078125	-486.1517333984376	-38.1987648010254	1224.78662109375	-525.0228271484376	241.9225616455079	1334.923217773438	-580.8331298828126	246.6319732666016	1326.152709960938	-505.4236450195314	328.0607604980469	1369.725341796875	-579.2589111328126	-458.2330627441407	892.9698486328127	-853.9791259765627	-455.1373901367189	884.7414550781252	-627.9004516601564	-635.3090209960939	927.439636230469	-732.6343994140626	-640.3480224609376	896.007019042969	-761.4367675781251	-640.6361694335939	894.7358398437502	-702.6931152343751	-330.2133178710938	694.4643554687501	-925.307800292969	-245.7244262695313	682.7919311523439	-919.2773437500002	-224.198226928711	722.7880249023439	-904.550964355469	-216.1124267578126	629.2304687500001	-908.4162597656252	-112.2351455688477	567.6867675781251	-903.1328125000002	-79.31334686279298	568.9700317382814	-788.1166992187502	41.81594467163087	525.1072998046876	-876.3819580078127	36.40882873535157	450.8583068847657	-921.8342895507815	66.35186767578126	480.3827514648439	-904.393249511719	129.5187377929688	431.6001281738282	-867.2927246093752	228.6081695556641	287.7753601074219	-905.345642089844	242.2299957275391	292.8893127441407	-819.5835571289065	230.0613708496094	197.0669555664063	-869.1939697265627	384.5718383789064	371.5536804199219	-846.1375732421877	376.3672790527344	373.8000793457032	-887.0979614257815	360.9967651367188	331.3374023437501	-943.5457763671877	-347.0597229003907	657.5433959960939	-559.6281127929689	-280.7452392578126	647.4547729492189	-555.2584228515626	-259.0605468750001	672.3408203125001	-561.0099487304689	-244.1078491210938	571.0033569335939	-564.6491088867189	-193.2296600341797	467.1720275878907	-602.5079956054689	-162.57373046875	483.8998107910157	-710.2850341796876	-219.5082397460938	279.6725463867188	-666.5809326171876	-322.0465087890626	247.6667175292969	-665.7470703125001	-281.7554016113282	225.0032043457032	-674.3754272460939	-282.1638183593751	181.3093566894532	-716.3433837890626	-377.3597717285157	115.6121520996094	-712.2149658203126	-343.2408752441407	142.038330078125	-792.0144653320315	-451.0699462890626	104.6112289428711	-770.8820800781252	-227.1583099365235	57.34677886962892	-776.9585571289065	-231.9544372558594	57.65317535400392	-730.8189697265626	-289.5153808593751	38.74972915649415	-682.8693847656251	200.0619812011719	1364.3291015625	-887.2653808593752	nan	nan	nan	nan	nan	nan	nan	nan	nan	
